<svg xmlns="http://www.w3.org/2000/svg" width="140" height="100" viewBox="0 0 140 100">
  <defs>
    <linearGradient id="bg3" x1="0" y1="0" x2="1" y2="1">
      <stop offset="0%" stop-color="#C9B8E8" stop-opacity="0.25"/>
      <stop offset="100%" stop-color="#7B5EA7" stop-opacity="0.1"/>
    </linearGradient>
  </defs>
  <rect width="140" height="100" rx="6" fill="url(#bg3)"/>
  
  <!-- Hat brim -->
  <ellipse cx="70" cy="38" rx="38" ry="8" fill="#F5F0E0" stroke="#7B5EA7" stroke-width="1.5"/>
  <!-- Hat crown -->
  <rect x="45" y="16" width="50" height="24" rx="5" fill="#F5F0E0" stroke="#7B5EA7" stroke-width="1.5"/>
  <!-- Veil mesh (simplified) -->
  <rect x="40" y="38" width="60" height="32" rx="2" fill="#C9B8E8" opacity="0.5" stroke="#7B5EA7" stroke-width="1"/>
  <!-- Mesh pattern -->
  <line x1="50" y1="38" x2="50" y2="70" stroke="#7B5EA7" stroke-width="0.8" opacity="0.6"/>
  <line x1="60" y1="38" x2="60" y2="70" stroke="#7B5EA7" stroke-width="0.8" opacity="0.6"/>
  <line x1="70" y1="38" x2="70" y2="70" stroke="#7B5EA7" stroke-width="0.8" opacity="0.6"/>
  <line x1="80" y1="38" x2="80" y2="70" stroke="#7B5EA7" stroke-width="0.8" opacity="0.6"/>
  <line x1="90" y1="38" x2="90" y2="70" stroke="#7B5EA7" stroke-width="0.8" opacity="0.6"/>
  <line x1="40" y1="48" x2="100" y2="48" stroke="#7B5EA7" stroke-width="0.8" opacity="0.6"/>
  <line x1="40" y1="58" x2="100" y2="58" stroke="#7B5EA7" stroke-width="0.8" opacity="0.6"/>
  <!-- Glove left -->
  <path d="M18 55 Q10 50 12 65 Q14 78 22 80 Q30 82 32 70 L30 55 Z" fill="#F5F0E0" stroke="#7B5EA7" stroke-width="1.5"/>
  <!-- Glove right (outline only, peeking) -->
  <path d="M108 56 Q116 51 118 65 Q118 78 110 80 Q102 82 100 70 L102 56 Z" fill="#F5F0E0" stroke="#7B5EA7" stroke-width="1.5"/>

  <text x="70" y="92" text-anchor="middle" font-family="Arial, sans-serif" font-size="7.5" font-weight="bold" fill="#7B5EA7">Ochranné pomůcky</text>
</svg>